<svg height="512" viewBox="0 0 60 60" width="512" xmlns="http://www.w3.org/2000/svg"><g id="Page-1" fill="none" fill-rule="evenodd"><g id="022---Cash" fill-rule="nonzero" transform="translate(-1 -1)"><path id="Shape" d="m58.34 31.35-8.63 1.5c-1.0685419-3.859854-4.8267067-6.3347663-8.7947482-5.791718s-6.9230614 3.9366969-6.9152518 7.941718c0 .2.01.4.02.59l-25.13 4.38c-1.08645076.1916717-2.12503708-.5259781-2.33-1.61l-4.53-25.41c-.08949577-.521234.03206298-1.0566583.33785813-1.4881484s.77069781-.723588 1.29214187-.8118516l49.45-8.62c1.084835-.19420313 2.1223399.52578949 2.32 1.61l4.54 25.41c.0894958.521234-.032063 1.0566583-.3378581 1.4881484-.3057952.4314901-.7706978.723588-1.2921419.8118516z" fill="#60a917"/><path id="Shape" d="m59.97 29.05-4.54-25.41c-.1976601-1.08421051-1.235165-1.80420313-2.32-1.61l-1.593.278c.4814177.29236754.8139669.77753251.913 1.332l4.54 25.41c.0894958.521234-.032063 1.0566583-.3378581 1.4881484-.3057952.4314901-.7706978.723588-1.2921419.8118516l-5.789 1.006c.057.163.112.326.159.494l8.63-1.5c.5214441-.0882636.9863467-.3803615 1.2921419-.8118516.3057951-.4314901.4273539-.9669144.3378581-1.4881484z" fill="#549414"/><path id="Shape" d="m47.52 29.21 3.21-.56c-.229442-1.3015608.0702691-2.6408594.832578-3.7204841.7623089-1.0796246 1.9241152-1.8102091 3.227422-2.0295159l-2.09-11.73c-2.7123261.4789291-5.3027545-1.32097202-5.8-4.03l-17.82 3.11-17.81 3.1c.229442 1.3015608-.0702691 2.6408594-.832578 3.7204841-.76230886 1.0796246-1.92411518 1.8102091-3.227422 2.0295159l2.09 11.73c2.7123261-.4789291 5.3027545 1.320972 5.8 4.03l17.82-3.11 1.93-.33z" fill="#008a00"/><path id="Shape" d="m34.97 31.18v.01c-.6660012.245136-1.3518657.4324941-2.05.56-3.8644196.7411039-7.828738-.6539462-10.3774034-3.6518253-2.5486654-2.997879-3.2875793-7.1350268-1.9342561-10.8298191 1.3533231-3.6947924 4.5896198-6.3759059 8.4716595-7.0183556 5.9741711-1.07082973 11.6921117 2.8825901 12.8 8.85.5131068 2.8431075-.1392039 5.7730997-1.81 8.13" fill="#60a917"/><path id="Shape" d="m50 35c.0136028 4.3131778-3.3945297 7.8606431-7.7047921 8.019783-4.3102625.1591398-7.9707123-3.1273453-8.2752079-7.429783-.01-.19-.02-.39-.02-.59 0-4.418278 3.581722-8 8-8s8 3.581722 8 8z" fill="#ffdc00"/><path id="Shape" d="m49.71 32.85c-1.1135591-4.0116726-5.122243-6.4947933-9.21-5.705 3.7649656.7276897 6.4840578 4.0245718 6.4818611 7.8592157s-2.7250642 7.1284085-6.4908611 7.8517843c2.7196219.5177183 5.5138009-.4054503 7.3896905-2.4414793s2.5675854-4.8963145 1.8293095-7.5645207z" fill="#fec108"/><circle id="Oval" cx="29" cy="50" fill="#ffdc00" r="8"/><path id="Shape" d="m29 42c-.5034323.0013583-1.005629.049904-1.5.145 3.7641632.7265899 6.4837629 4.0213519 6.4837629 7.855s-2.7195997 7.1284101-6.4837629 7.855c2.9873733.5766142 6.0432406-.5912461 7.8846263-3.0132663s2.1495108-5.6789024.795012-8.4032768-4.1371319-4.4446-7.1796383-4.4384569z" fill="#fec108"/><circle id="Oval" cx="52" cy="52" fill="#ffdc00" r="8"/><path id="Shape" d="m52 44c-.5034323.0013583-1.005629.049904-1.5.145 3.7641632.7265899 6.4837629 4.0213519 6.4837629 7.855s-2.7195997 7.1284101-6.4837629 7.855c2.9873733.5766142 6.0432406-.5912461 7.8846263-3.0132663s2.1495108-5.6789024.795012-8.4032768-4.1371319-4.4446-7.1796383-4.4384569z" fill="#fec108"/><path id="Shape" d="m35.474 23.24c-.4013103-2.1677738-2.4747473-3.6070408-4.646-3.225-1.0869256.1960125-2.1286649-.520797-2.334-1.606-.0915109-.5107281.0251623-1.0368379.324-1.461.4676815-.6619009 1.2849665-.9812004 2.0774864-.811639.7925198.1695613 1.4076075.7953202 1.5635136 1.590639.0972021.5437243.6167757.9057021 1.1605.8085.5437243-.0972022.9057021-.6167757.8085-1.1605-.3326741-1.7864378-1.827712-3.1241682-3.64-3.257l-.2-1.113c-.1100744-.5301857-.6221558-.8764373-1.1551883-.7810982-.5330325.0953392-.8933424.5976283-.8128117 1.1330982l.2 1.1c-.6584439.2904929-1.225382.7547599-1.64 1.343-.6062562.8589885-.842241 1.9254235-.655 2.96.4032535 2.1668714 2.4761005 3.6049731 4.647 3.224 1.0871972-.1982886 2.1301284.5196487 2.333 1.606.0924747.5110646-.0242693 1.0378537-.324 1.462-.4675018.6621434-1.2849464.9815217-2.0775045.8116878s-1.4073599-.7961221-1.5624955-1.5916878c-.0972021-.5437243-.6167757-.9057021-1.1605-.8085s-.9057021.6167757-.8085 1.1605c.3326741 1.7864378 1.827712 3.1241682 3.64 3.257l.2 1.113c.0851603.476315.4991325.8233273.983.824.0593631.000044.1186071-.0053114.177-.016.5433244-.0973953.904978-.6166009.808-1.16l-.2-1.105c.6576058-.28901 1.2244263-.751107 1.64-1.337.6061168-.8590428.8417581-1.9255537.654-2.96z" fill="#f5f5f5"/><g fill="#000"><path id="Shape" d="m33.174 36.753c.9314512 4.813251 5.5464655 7.9935924 10.3759551 7.1503741 4.8294896-.8432182 8.0937479-5.3992632 7.3390449-10.2433741l7.622-1.325c.7834236-.1341263 1.4813243-.5743595 1.9398028-1.2236205.4584784-.649261.6398781-1.4542237.5041972-2.2373795l-4.54-25.407c-.2927103-1.62817898-1.8481819-2.71213287-3.477-2.423l-49.449 8.621c-.78833494.13396726-1.48983595.5789358-1.947 1.235-.45835162.6449625-.638498 1.4469742-.5 2.226l4.535 25.416c.30873233 1.6205597 1.85933979 2.694639 3.485 2.414zm14.641-8.61c-1.6213194-1.3839632-3.6833269-2.1438742-5.815-2.143-.024 0-.048 0-.073 0 1.0438151-2.2043048 1.371467-4.6800525.937-7.08-.7159119-3.9409449-3.3610999-7.2599178-7.043-8.837l10.352-1.8c.8684691 2.3787566 3.1306649 3.9614547 5.663 3.962h.04l1.768 9.923c-1.1840754.413739-2.2071183 1.1910836-2.923 2.221-.707649 1.004719-1.08224 2.2061383-1.071 3.435zm-13.51 2.213c-.5087404.1727641-1.0290309.3094365-1.557.409-5.4325018.9753386-10.6341753-2.6155488-11.648-8.041-.464222-2.5720261.1221961-5.2227943 1.628-7.359 2.3310203-3.3154739 6.4190229-4.9152399 10.3812003-4.0624952 3.9621773.8527446 7.0301087 3.9926194 7.7907997 7.9734952.4449003 2.4675586-.0814604 5.0115758-1.469 7.1-2.1429174.6454481-3.9697118 2.063833-5.126 3.98zm-13.211-16.137c-1.812922 2.5707787-2.5183055 5.7615764-1.958 8.857.7175012 3.9442502 3.3683987 7.2642589 7.056 8.837l-10.365 1.805c-.887435-2.380439-3.1595226-3.9597392-5.7-3.962l-1.771-9.923c1.18407541-.413739 2.2071183-1.1910836 2.923-2.221.7072214-1.0049297 1.0817685-2.206208 1.071-3.435l10.334-1.8c-.5909395.5586394-1.123668 1.1758004-1.59 1.842zm20.906 27.781c-3.8659932 0-7-3.1340068-7-7s3.1340068-7 7-7 7 3.1340068 7 7c-.0044086 3.8641657-3.1358343 6.9955914-7 7zm-34.456-3.815-4.529-25.408c-.04516487-.2550161.01352582-.517504.163-.729.1537779-.219817.38942785-.3686296.654-.413l49.449-8.62c.5425337-.10038666 1.0638607.2576061 1.165.8l4.539 25.407c.0451649.2550161-.0135258.517504-.163.729-.1537779.219817-.3894278.3686296-.654.413l-7.8 1.355c-.2512132-.6431198-.5756859-1.2551552-.967-1.824l1.5-.261c.2624854-.045795.4958407-.1944507.6482869-.412982s.2113759-.4888653.1637131-.751018c-.1876605-1.0260247.0451346-2.0844135.646-2.937.6099635-.8766145 1.5470069-1.4709162 2.6-1.649.2620269-.0453745.4951897-.1932473.6479403-.4109264.1527507-.217679.2125076-.4872348.1660597-.7490736l-2.088-11.729c-.0965099-.5418295-.6127006-.9038334-1.155-.81-2.1695003.3816899-4.2418263-1.05457571-4.646-3.22-.0964962-.5422899-.613349-.90444457-1.156-.81l-35.628 6.21c-.2626691.0455608-.4962725.1941183-.6489256.4126769-.1526531.2185587-.2117174.4890237-.1640744.7513231.1876605 1.0260247-.0451346 2.0844135-.646 2.937-.60996351.8766145-1.54700687 1.4709162-2.6 1.649-.26202691.0453745-.49518966.1932473-.64794032.4109264-.15275067.217679-.21250761.4872348-.16605968.7490736l2.089 11.73c.09650986.5418295.61270056.9038334 1.155.81 2.169249-.3805448 4.2408424 1.055213 4.646 3.22.0847316.4767124.4988166.8242405.983.825.0579882-.0000733.1158646-.0050915.173-.015l17.816-3.109h.011l.209-.036c-.179621.6699726-.2803043 1.3586466-.3 2.052l-24.29 4.233c-.54406836.0973242-1.06613211-.2581235-1.175-.8z"/><path id="Shape" d="m29 41c-3.6401602 0-6.9218868 2.1927796-8.3149158 5.5558491s-.6230272 7.23413 1.9509548 9.8081119c2.5739819 2.573982 6.4450424 3.3439838 9.8081119 1.9509548s5.5558491-4.6747556 5.5558491-8.3149158c-.006061-4.9680501-4.0319499-8.993939-9-9zm0 16c-3.8659932 0-7-3.1340068-7-7s3.1340068-7 7-7 7 3.1340068 7 7c-.0044086 3.8641657-3.1358343 6.9955914-7 7z"/><path id="Shape" d="m44.724 33.5c.2780058.4742136.886647.6351286 1.3626943.3602745.4760473-.274854.640996-.8824145.3693057-1.3602745-.7452809-1.2671981-2.0082956-2.1442917-3.456-2.4v-.1c0-.5522847-.4477153-1-1-1s-1 .4477153-1 1v.118c-2.3265723.466085-4.0009831 2.5092012-4.0009831 4.882s1.6744108 4.415915 4.0009831 4.882v.118c0 .5522847.4477153 1 1 1s1-.4477153 1-1v-.095c1.448616-.2568591 2.7117967-1.1358954 3.456-2.405.2716903-.47786.1067416-1.0854205-.3693057-1.3602745-.4760473-.2748541-1.0846885-.1139391-1.3626943.3602745-.3848083.6496306-1.0004269 1.1302702-1.724 1.346v-5.692c.7235731.2157298 1.3391917.6963694 1.724 1.346zm-5.724 1.5c.0119686-1.2609019.8111366-2.3797372 2-2.8v5.6c-1.1888634-.4202628-1.9880314-1.5390981-2-2.8z"/><path id="Shape" d="m32.68 47.765c-.2562166.0686632-.4746553.2363106-.6072483.466051-.1325931.2297404-.1684756.5027487-.0997517.758949.1871307.7311673.0917936 1.5060041-.267 2.17l-4.025-4.024c.6641449-.3593869 1.4393952-.455088 2.171-.268.3486122.1036823.7260305.0099144.9855847-.2448642.2595541-.2547786.3603139-.6303908.2631225-.9808681-.0971913-.3504773-.3770073-.6205514-.7307072-.7052677-1.423655-.3716981-2.9386977-.100489-4.145.742l-.067-.067c-.3923789-.3789722-1.0160848-.3735524-1.4018186.0121814s-.3911536 1.0094397-.0121814 1.4018186l.083.084c-1.2977015 1.9792193-1.037752 4.5957942.624 6.281.9321521.9306648 2.1967965 1.4514219 3.514 1.447.9824134-.0016665 1.9433704-.2874879 2.767-.823l.083.083c.3923789.3789722 1.0160848.3735524 1.4018186-.0121814s.3911536-1.0094397.0121814-1.4018186l-.067-.067c.8421944-1.2064099 1.1137189-2.7211729.743-4.145-.0686632-.2562166-.2363106-.4746553-.466051-.6072483-.2297404-.1325931-.5027487-.1684756-.758949-.0997517zm-5.815 4.212c-.8836325-.9001425-1.1098218-2.2568783-.566-3.395l3.961 3.961c-1.1381217.5438218-2.4948575.3176325-3.395-.566z"/><path id="Shape" d="m52 43c-4.9705627 0-9 4.0294373-9 9s4.0294373 9 9 9 9-4.0294373 9-9c-.006061-4.9680501-4.0319499-8.993939-9-9zm0 16c-2.8312357 0-5.3836897-1.7054952-6.4671567-4.321216-1.083467-2.6157207-.4845767-5.6265455 1.5174092-7.6285315 2.001986-2.0019859 5.0128108-2.6008762 7.6285315-1.5174092 2.6157208 1.083467 4.321216 3.635921 4.321216 6.4671567-.0044086 3.8641657-3.1358343 6.9955914-7 7z"/><path id="Shape" d="m56.388 49.158c.3789722-.3923789.3735524-1.0160848-.0121814-1.4018186s-1.0094397-.3911536-1.4018186-.0121814l-.084.083c-1.9748842-1.3111795-4.6003375-1.0482108-6.2759402.6286061-1.6756026 1.6768169-1.9366695 4.30246-.6240598 6.2763939l-.084.083c-.2599566.2510745-.3642126.6228779-.2726972.9725073.0915155.3496295.3645604.6226744.7141899.7141899.3496294.0915154.7214328-.0127406.9725073-.2726972l.066-.065c.8441978.5869736 1.8468031.9036225 2.875.908.4291375.0000132.8564317-.0561301 1.271-.167.3451186-.0925318.6146562-.3621532.7070806-.7073006.0924244-.3451473-.0063059-.7133845-.259-.966-.2526942-.2526156-.620962-.3512312-.9660806-.2586994-.7311221.1878323-1.506218.0924634-2.17-.267l4.024-4.025c.3593869.6641449.455088 1.4393952.268 2.171-.1036823.3486122-.0099144.7260305.2448642.9855847.2547786.2595541.6303908.3603139.9808681.2631225.3504773-.0971913.6205514-.3770073.7052677-.7307072.3716981-1.423655.100489-2.9386977-.742-4.145zm-6.365.707c.9001425-.8836325 2.2568783-1.1098218 3.395-.566l-3.961 3.961c-.5438218-1.1381217-.3176325-2.4948575.566-3.395z"/></g></g></g></svg>